<?xml version="1.0" encoding="utf-8" ?>
<svg baseProfile="full" height="491.5674085414911" version="1.1" width="946.8320258645491" xmlns="http://www.w3.org/2000/svg" xmlns:ev="http://www.w3.org/2001/xml-events" xmlns:xlink="http://www.w3.org/1999/xlink"><defs /><rect fill="white" height="491.5674085414911" width="946.8320258645491" x="0" y="0" /><path d="M859.7110936202869,33.888126019446915 m0.0,0.0 m-0.2810616119106577,-0.2523900256695071 l-0.2198262975144666,0.08888629018920219 -1.3519215779768508,4.69218217104515 l-9.183916687646557,10.850739999939416 m-4.3935342160241735,-17.86461269567305 l14.047099896467778,-0.4152418978928063 38.8608063885234,-5.987689861385321 l8.714777389520261,0.24435442489028192 5.286030277867018,1.243593004840377 l3.2665868206565194,1.4047189540380098 3.6758887192770366,5.746124533781761 l-1.459885356470048,35.68027131425816 -8.208201693557667,11.889757015162331 l-6.414063128583319,12.062758006987194 -8.041969514786194,11.395346228884788 l-7.730537648685748,7.819038497503249 -10.104512898847318,3.2574893709972685 l-24.66801279577556,-17.108684900796597 6.724617195048246,7.719880717827894 l9.959126885996067,16.544690780281563 9.975165396303087,10.197529231516953 l9.375368059900893,6.9795115437799975 14.065842813742558,2.3876704878843924 l13.721392866042919,-5.756313260723987 4.544923339514639,-3.87839717430574 l1.9607496231803965,-5.038536374666601 -0.5347929670644208,-3.9224741860742003 l-8.130567751847298,-4.543261286822375 -15.537686275368145,-14.439785132075128 l-6.878337881656668,8.957130778416175 -11.037684487794085,8.977874296548546 l-18.145089017675552,7.942586106808751 -10.62080383894157,-4.917940223434772 l-5.123530741168032,-16.588717006571557 1.7527623412987179,2.1050719383122365 l-0.153925674090103,7.826173804984073 -2.156073962377067,22.643025389448976 l-13.446774234611855,6.981961580288155 -8.913061205179524,4.435652189059506 l-17.293562079456965,2.33661204645711 -15.709404967124021,0.19437845521267683 l-0.14889468549353463,-0.3018668538203302 1.1633669649103486,4.48680950439536 l-7.455770487887289,8.529259195637108 m-9.17780996348906,-9.446094306615956 l6.849194593870123,-5.3614549430184315 13.692152277259286,-8.2837304489403 l17.20468030813424,-7.91762487341218 3.7156745821158292,-2.007501047391546 l2.569093775411737,-6.9529777089559275 3.5262471444662933,-1.9936195189687869 l5.442698792452424,-3.0462013374747534 9.436330106675916,-1.4649027395430996 l12.358465593992328,-1.8592524326928501 4.889903372708827,-2.63367829263398 l0.7551985176691633,-0.28183547799419917 0.7341273228648673,0.6600209497435052 l-0.9950766496107089,8.25089508008884 -7.120891072009872,14.616960237584424 l-5.50729197627572,18.154604124115735 -6.044853730957697,13.600839141228107 l-0.2717857952429442,1.5716129542686559 -0.9741000337355596,4.518333122454873 l-2.0621329976789164,16.90124275140326 m-5.631513999323387,-1.3566167311108353 l1.685716801802994,0.7782496296614496 -0.35338039654166487,-3.968068483592832 l10.337354794404845,-6.355784873287629 1.860041115193389,-4.942425264281941 l-1.4051302418885516,-0.573164024650864 -1.0465123745858895,1.781821621895088 l-12.188280708071531,14.493653295596872 -16.619494227387072,-0.9522656208295889 l-4.611797265180717,-5.617865958944311 -0.9840306613829117,-6.456982331658029 l-2.0827461817952915,-2.0141178672306297 -1.8478066898141576,-3.50414815707614 l-5.760025908190216,-2.9001360399094973 -12.463705554312037,-7.0316955395214915 l-19.429074137847657,-8.842255234640678 -7.704497625178606,7.26075338483945 l-11.722334098415136,3.4112965911068907 -14.153034730921588,4.531833133828769 l-24.1798494318748,-21.149463540793615 1.2129033381891452,-3.2769676801535392 l5.17435605404808,-0.6369883765397378 18.087576793818585,-6.56693768407892 l34.996035574814826,-1.2122342701773965 7.096164931410516,-1.8468103568465228 l5.863749450981262,-0.08528757567067978 25.7110136776783,-1.2151909637722342 l6.54128338531073,0.7393835238786607 12.813964284909101,-5.264643657132403 l-1.5550293466186904,-8.332235549919073 -0.44750744666867415,-1.764000606014224 l0.7958691798257627,0.37542303271115135 1.1955183213067486,9.094735075423701 l-4.916784406644139,27.10171165708498 m-37.999703012946625,7.771244244490067 l1.8199396928476457,6.886646834473066 3.4300987729121424,13.402122881263278 l10.152562837812315,12.044684067428827 9.63264666535263,7.618896412662298 l6.416996646658161,7.234404790991965 6.232077955808506,3.34449573780694 l-1.7160804302114965,-1.045481707219708 -1.538544778399022,-4.369860447295645 l-7.401278798581725,-6.152862150549386 -14.153571529351563,-3.8439300095890703 m-19.317929167619578,-26.96457309799068 l-2.770463072326818,5.471023203354553 -5.722348218297214,3.509821421267537 l-13.198189932701357,-1.2457025048282617 -7.201363002509115,-2.8264366379475057 l-10.783237204804834,0.18953747648926011 -12.419938140411933,2.073161240671064 l-11.85235149500513,0.9507244958388181 -10.245339866472849,-0.947980737908519 l-7.862455461690988,-5.268972355748226 -6.149134135976359,-6.199462248887492 l-12.982806206613075,-7.394018757093865 -13.745465012153517,-4.21612190219193 l-12.43279517073567,-0.5580647393375524 -7.247782935935438,-2.45582897307182 l-9.109954564995036,-1.9560720201827813 -12.793558307610152,-5.525647253715258 l-14.707608122196804,-4.125907028869166 -18.264724526956925,-1.5619453157401098 l-7.181484776013171,0.5634662880728216 -4.462348704135165,-1.5652866665189746 l-6.453425264580684,-5.802257432727117 -15.100797861996277,-6.002839431358909 l-9.460337811759587,-6.229068965657767 -12.818974458293297,-4.750872715999228 l-11.093953045008934,-3.9769645800009013 -13.702476997378835,1.9890775339379188 l-22.360128029277025,-4.05999658251277 -17.9362092438638,-7.426041525438495 l-8.98491910233102,-1.851105813887784 -5.1677807709959485,-3.485481879130552 l-5.96152477945148,-1.608240670412799 -4.341875686799169,-3.2713624767673286 l-2.810683510941855,-1.696456081568948 -7.071253417893398,-2.6335307997928674 l-16.78203817248503,-1.3270088818227501 -14.420992222467271,-1.9319080786226621 l-9.909488348488091,-7.424439964915033 -0.9013339249876493,-10.039223728913083 l-1.2573891782765756,-3.3921497330275354 3.5341999927512955,-5.051430740690904 l12.496492237471683,-2.8150188842446724 -4.825264009925096,-22.235743101336695 l0.9912904196851757,3.119796329441706 -0.6316335383272049,4.322018303171747 l-2.078966664089639,26.881750681818914 -19.500691832498674,8.839268320949186 l-1.783485863942369,2.832352156624735 -1.4712216419785602,1.2935452082376395 l4.139183048195449,1.004238963967783 30.09406977760382,-9.45545765402614 l13.837859222160926,1.1269820625192912 15.444757213965193,-11.550488581832054 l-2.4267969279439945,-0.9525887048602519 -3.783055677587386,-1.9871324175936138 l-9.302250790336029,0.0013646980186288182 -15.733087047058762,2.766324547531915 l-20.254474118003156,-8.418930241942604 -2.4787329008555097,1.9856762162329478 l-6.019184867988518,7.076514041739054 -12.226732269562937,9.550968189823184 l-18.251353880436586,8.373522981651089 -12.588351524626448,-25.106927989219145 l12.052967986901221,5.308771328076127 22.244148054309036,9.733213411443975 l12.577733143962924,11.126153711155396 9.078648709284575,9.661203516309904 l3.538445734074988,2.5906859242879685 -9.569021371761785,-6.117544306741917 l-4.806208549381143,4.117378266771533 -13.239548075466391,3.774153876123839 l-20.029723115268954,2.317264542348809 -18.794354359373177,-10.229209269072836 l-10.715308497949867,-5.958811312971557 -4.711093077050861,-1.9929678888249924 l-10.74885180503825,-2.0617206615470827 -18.38309608939854,1.6507404767379852 l-6.874867981717355,-4.926809547371561 -1.06264182770887,-12.80359404060599 l5.4386555001761945,1.0209514805124817 8.458670675443566,-0.20210769414526483 l17.33945422489076,-4.2973450683075205 13.676002859611302,-3.9950403238182095 l2.3666923907856745,-13.322777335642405 -5.5494436899069015,0.12189322408326264 l-0.6633276649329358,6.302934395262341 -8.016362771053425,28.739013506336498 m-14.896799701707916,4.365322414710565 l5.870693779549106,4.3313942179008915 18.67149530131275,6.236418445845246 l9.958935380976504,-0.1348442041453639 16.87305509984807,-2.628274573066841 l-3.385508749865883,-3.2221782548245597 -3.536856779321291,-6.598912876639311 l1.5561306424089536,0.33236825644598966 1.5253820728453797,0.3205977856871056 l-2.823068132620217,-0.3390805927637661 -18.679378423184215,-7.606613746595285 l-8.455604582685694,3.4240716443224404 -6.842813545668189,7.392960275021739 l-11.719929479222511,4.5180897389843935 -14.413117076717622,-4.91813313556781 l10.77699004520177,-12.687113861925477 3.468901987493007,-3.4956194036668293 l9.519893661003627,-6.673255891529202 25.743854834306184,-7.901915310239625 l3.8819835708078827,-0.0636919004794384 -1.712875426836038,-5.0426536673303115 l1.4930489654839387,-0.2587492571268646 3.0728765915879017,3.1644357659791043 l2.3066570784003395,27.905848115197983 -1.5038397740423288,10.604086741748139 l-4.177169183623176,11.31770231668875 -5.257008489279617,11.916201735061339 l-5.694039289730116,10.751849892195914 -6.27050869326158,5.594378031396081 l-10.348032686378753,8.664006013629528 -13.676420963161139,6.171051208348929 m2.855521931851049,-18.55597309561003 l13.679856611211306,6.014495188193511 17.733946895940285,8.033599177290549 l14.734430013621356,7.868103595953025 2.6616226842966455,1.0504111739233792 l-3.166592761681213,-2.3799789068112767 -9.562341496342107,-3.558570302962484 l-9.45136897411573,-4.525603276431131 -14.359628441904185,-0.8393616673827751 l-8.289826048449477,-1.02131920169744 -12.392599492998766,-0.5697989683835506 l-13.442364412119787,-2.8360876218123514 -13.42419912727921,-3.1469913916866714 l-5.313915307111326,-2.5977785211606004 -15.674440623567868,-0.23501656972192908 l-17.053767483452184,-1.6091798554561776 -18.840572222029206,-3.689286726106221 l-7.239681423719506,-7.3429025025756625 -4.519151293665901,-0.532930158212392 l-6.227603211952191,3.519862592246053 -16.118950801932446,-0.7315321351208373 l-12.680967704618551,1.4149910680828732 -20.81891837306358,-10.496148189806888 l-13.09682169586076,-1.5482524441051355 -8.005572883219196,1.4577400060848473 l-14.941806336060521,1.83427482481124 -20.23686926950224,0.14579748111899749 l-15.610681403908197,-14.244945822128086 3.6971732919941243,-5.110128494929721 l5.819393912270534,-2.7551886413665807 27.31294758296949,-9.532677140377777 l16.917985045754477,-9.00167175721427 9.979155660204645,-18.248698571792918 l19.736830740644432,-1.338906078162017 15.382576168396128,-6.347885431885821 l25.352659583321,3.4278219089087774 15.518385518082022,-2.487985259569713 l6.385021074859055,-3.0413327572429822 2.342892041554017,-3.611731158413817 l4.711669196083313,-0.9867069606469596 9.915075660073947,1.081682604162781 l7.802690723637106,1.8120689173656772 7.6955567979768364,5.166392949812088 l5.090113468998405,10.974212708850095 -2.6793166396489565,10.070539756623754 l-4.104940249146882,13.018293652981882 -5.794376284708516,16.04569429499467 l-7.261747024725437,10.748293727630159 -9.755901731329553,6.966640475795361 l-10.938001055104392,6.015233097294441 -12.257238639808167,-3.5220624076172586 l4.1540466454700535,-17.813499520765177 6.507095629634119,-1.3203644460923551 l19.580747928417036,-4.4997214970120565 14.260591563923347,0.9466593416835838 l7.577301455131688,-0.21128776267104263 3.0434425876875277,5.681951416231502 l0.4436886103512657,15.187404230059013 -3.1024010709573324,19.4171268118302 l-5.4149143413460115,13.884382876976503 -7.020110153962844,11.540210437348502 l-6.7608847043327485,9.45474168552757 -7.9247135253701355,8.616055631837167 l-10.08053524744465,-3.0084797106489085 -10.25685988484998,-15.295472094732808 l-2.982112403585798,0.20485576644191988 -4.166876758229874,2.8647571859476475 l-12.582819949101234,10.33727293189139 -21.74191866733362,2.387604482858052 l-8.222850885667714,-26.347933137830008 4.197027509763913,-1.023483925277481 l12.031463925561335,-1.677382180255765 29.74060643166601,-5.426568660997374 l10.063918738814433,-3.2263906306107994 3.282724787064894,-2.8318976390129715 l1.991567650585434,-3.6898067600169453 -2.472738811177188,-1.6022706001403644 l-1.0831243389662675,2.5747090532072394 -4.281865053641869,8.462990953132607 l-12.714675513164813,21.56008265658416 -20.166580965766673,5.022964573861993 l2.32933403013282,-1.3408849586502234 30.94036704471972,-8.534852047503964 l11.064133725967142,1.1847181078060156 5.9288826151755405,1.283375370152076 l-0.2798237508750434,1.4638787398764743 -7.729908514225258,10.944053053472134 l-11.53206819500797,12.233339781110379 -8.470344066583982,11.252720794269305 l-7.518667246261868,-4.3765764898513035 13.380167012639617,0.25830514796000636 l24.754825152684564,-3.1817165643907215 15.545425097755107,1.2733625898399485 l7.863640743329134,2.6148603189780815 5.792345019251712,4.7695835245125044 l-2.6373828819022114,8.0806649315528 -11.281111746402692,17.188687818624288 l-12.647095463173127,10.502819553273564 -10.435536753101294,7.682491717885998 l-13.959616551188809,9.853939736406648 -12.299866869017695,6.572527121358982 l-16.75977810810155,-2.849401622581488 -7.72409287144193,-1.0582469212085122 l-4.313364572268836,4.886819849376731 -14.351856544781135,15.34683131695092 l-15.915047578087584,2.6421788593230637 -10.124812573174417,-5.519913654594454 l-4.123083397015545,-2.5201880988574294 0.037112693749473014,-0.33492508610080096 l-3.0676765996996176,5.551327863245069 -10.935037644013372,10.215041353843414 l-19.766807356191016,1.4004654867144402 -10.797255149284402,-8.130892951281076 l-3.661646887541489,-4.970161131526804 3.4148996276932015,-1.7755151424045896 l12.14357503953576,-1.7165277252018583 27.29839611513269,-5.426265395655039 l13.788296605436923,-4.741768403433701 9.680274803936873,-3.3300009221360405 l3.081238283725151,-2.675814024841596 7.080766522028802,-0.8997498861636282 l14.224701629021682,-2.1395374716025053 9.050493513578207,-2.59409967021542 l9.56588619443102,-2.0984900211574105 2.4734925300379262,1.0772478958458829 l0.7533445901799454,5.478870687622813 -3.3597308994099313,29.262436001971302 l-3.7037623500548538,3.8130716689557063 0.22470837027586166,3.869656258780372 l0.9800919732761262,9.019103018858074 -0.8029748687105263,5.339740077359588 m-2.6460330261935905,-19.98691746644167 l10.895099350653652,0.6868018464269217 29.55106176420404,-4.5911839815309445 l3.686137939005992,-1.8095605934305117 -1.0494902173728948,-0.9141342725576467 l-2.0151831579495134,2.946758280571671 -5.6531292860238676,10.977154095490697 l-9.522427622976444,14.780156673942992 -11.442538460741737,8.362530737389761 l-24.867203290454324,-1.994912901094156 -6.410633280032117,0.627479002911673 l-6.046715101215265,4.5541734355492505 -18.54382253778104,15.157317902475272 l-18.421311621701857,-0.2702859874005834 2.956223284967267,-14.039706017741683 l16.506674456373066,0.7749645936040142 40.86029271894588,-2.961982283816127 l9.947839414019931,-0.6159543508906253 6.293165615148098,0.5346379700715046 l1.9316515896896211,0.6742511394935906 1.9946270135921027,2.964941813370596 l-1.2498936355884203,18.977387960755202 -4.245854966115068,29.45131819003854 l-6.101710269535137,10.998676787418923 -5.413252786371747,4.941616467940777 l-4.492878417921407,2.144534754328409 -4.539243427680897,-0.1714436730278862 l-7.0048854833805985,-5.006154006511459 m-12.142589207094414,-12.890154859698189 l-1.7733149013236602,12.14565607726481 -5.7052407249773305,15.416496229053188 l-7.56394898485064,13.044896999241471 -9.748225060964002,12.586261501474308 l-20.266263295623784,11.864293132586369 -14.81585591648392,-5.539422455612476 l-2.884800702015802,3.11428393964019 -7.2516718337696515,17.66687346899867 l-9.112126686467303,12.828911230043296 -9.994177310699689,9.167042008004326 l-15.656885467939793,-6.077650939320232 -10.959481657601604,-6.511147517827211 l8.037059392892171,-5.602563292239665 " fill="none" stroke="black" stroke-width="1" /></svg>